<?xml version="1.0" standalone="no"?>
<!DOCTYPE svg PUBLIC "-//W3C//DTD SVG 20010904//EN"
 "http://www.w3.org/TR/2001/REC-SVG-20010904/DTD/svg10.dtd">
<svg version="1.0" xmlns="http://www.w3.org/2000/svg"
 width="400.000000pt" height="400.000000pt" viewBox="0 0 400.000000 400.000000"
 preserveAspectRatio="xMidYMid meet">

<g transform="translate(0.000000,400.000000) scale(0.100000,-0.100000)"
fill="#000000" stroke="none">
<path d="M1805 3988 c-787 -79 -1454 -613 -1701 -1363 -135 -412 -135 -838 1
-1252 285 -867 1140 -1438 2042 -1364 929 76 1663 746 1824 1666 18 106 23
167 23 325 0 158 -5 219 -23 325 -99 564 -410 1040 -881 1347 -377 247 -842
361 -1285 316z m449 -1108 c232 -60 363 -190 383 -381 l6 -59 -216 0 -217 0
-5 28 c-9 40 -30 74 -60 97 -21 16 -45 21 -123 23 -110 3 -155 -12 -182 -60
-13 -25 -13 -31 0 -55 23 -42 90 -70 265 -108 197 -43 283 -69 355 -105 113
-58 181 -139 206 -249 17 -72 17 -120 -1 -205 -20 -96 -50 -152 -114 -216
-127 -126 -349 -182 -626 -160 -276 23 -454 103 -528 237 -34 63 -57 152 -57
220 l0 53 214 0 214 0 7 -42 c18 -108 54 -131 213 -136 138 -5 194 11 211 59
13 37 1 72 -31 93 -26 17 -106 39 -338 96 -174 42 -278 85 -337 140 -101 92
-139 192 -131 334 15 231 173 367 484 416 94 15 317 4 408 -20z m-299 -1763
c23 -32 18 -55 -21 -108 -26 -35 -43 -49 -60 -49 -30 0 -30 7 -2 37 14 15 17
23 8 23 -40 0 -69 82 -37 108 31 25 91 20 112 -11z m107 -67 c-3 -81 -5 -90
-23 -90 -17 0 -19 7 -19 61 0 50 -3 60 -15 55 -24 -9 -18 29 8 47 47 33 52 25
49 -73z m108 0 c0 -83 -1 -90 -20 -90 -18 0 -20 7 -20 61 0 50 -3 60 -15 55
-24 -9 -18 31 7 48 43 30 48 22 48 -74z"/>
<path d="M1874 1096 c-8 -21 3 -36 27 -36 15 0 20 6 17 22 -4 27 -35 37 -44
14z"/>
</g>
</svg>
